# xmcd
#
# Track frame offsets:
#	180
#	20754
#	45284
#	67514
#	91106
#	111621
#	139486
#	163779
#	192564
#	202619
#
# Disc length: 2944 seconds
#
# Revision: 0
# Processed by: cddbd v1.5.2PL0 Copyright (c) Steve Scherf et al.
# Submitted via: audiograbber 1.83.01
#
DISCID=830b7e0a
DTITLE=Various Artist - Huge House CD1
DYEAR=1996
DGENRE=House
TTITLE0=Outrage - That piano track
TTITLE1=Jetpac - Music n' gurls
TTITLE2=Swag - Dark corners EP
TTITLE3=X-press 2 - Say what
TTITLE4=Happy Clappers - I believe
TTITLE5=2 High - High's theme 
TTITLE6=Torfinn - I'll nostra tempo de la vita
TTITLE7=Loveland - Don't make me wait
TTITLE8=Me Roy - Saved
TTITLE9=N'Trance f. Ricardo da Force - Stayin alive
EXTD=
EXTT0=
EXTT1=
EXTT2=
EXTT3=
EXTT4=
EXTT5=
EXTT6=
EXTT7=
EXTT8=
EXTT9=
PLAYORDER=
